<?xml version="1.0" encoding="UTF-8"?>
<svg version="1.1" xmlns="http://www.w3.org/2000/svg" width="1024" height="1024">
<path d="M0 0 C11.98746162 -0.09280371 23.97483734 -0.16381784 35.96258545 -0.20724869 C41.52938555 -0.22809653 47.09593931 -0.25636328 52.66259766 -0.30175781 C58.03777478 -0.34531506 63.41271539 -0.36915819 68.78805542 -0.37950897 C70.83572104 -0.38688258 72.88337416 -0.40128152 74.93093872 -0.42292023 C77.80580309 -0.45208528 80.67969827 -0.4559505 83.5546875 -0.45410156 C84.39554398 -0.46848267 85.23640045 -0.48286377 86.10273743 -0.49768066 C91.80167612 -0.45818984 96.280236 0.69922905 101 4 C105.49431011 9.64669732 106.14603412 14.04683844 106.11352539 21.05151367 C106.11367142 21.87125168 106.11381744 22.69098969 106.1139679 23.53556824 C106.11327096 26.24639528 106.10548878 28.9571537 106.09765625 31.66796875 C106.09579129 33.54698143 106.09436776 35.4259946 106.09336853 37.30500793 C106.08954948 42.25175315 106.07972438 47.19846902 106.06866455 52.14520264 C106.0584373 57.19250085 106.05386809 62.23980379 106.04882812 67.28710938 C106.03810159 77.19141914 106.02103248 87.09570713 106 97 C104.90373291 97.3290332 103.80746582 97.65806641 102.67797852 97.99707031 C101.22403343 98.44046785 99.77018085 98.8841688 98.31640625 99.328125 C97.59569946 99.54355957 96.87499268 99.75899414 96.13244629 99.98095703 C86.25461503 103.0150839 79.41278177 108.08648405 74 117 C68.68946843 127.7501946 67.61525639 139.49187174 71 151 C74.5832591 160.59388727 80.97209205 168.93376157 89.921875 174.078125 C92.82098104 175.3641946 95.70336776 176.02377782 98.82421875 176.54296875 C101.36198033 177.07603537 103.60532169 178.01596354 106 179 C106.09285808 189.42284578 106.16384514 199.84559244 106.20724869 210.26876831 C106.22808485 215.10917823 106.25632966 219.94930423 106.30175781 224.78955078 C106.34535758 229.46447524 106.36916696 234.13912734 106.37950897 238.8142395 C106.38687504 240.59396652 106.40125922 242.37367936 106.42292023 244.15328979 C106.45214278 246.65459906 106.45594825 249.15479632 106.45410156 251.65625 C106.46848267 252.38489761 106.48286377 253.11354523 106.49768066 253.86427307 C106.45456272 259.29488304 104.9786534 263.44936175 102 268 C97.844557 271.95273846 94.70101962 273.12611505 89.04560852 273.12025452 C88.02337189 273.12162918 87.00113525 273.12300385 85.94792175 273.12442017 C84.82726822 273.12082489 83.70661469 273.11722961 82.55200195 273.11352539 C81.37138184 273.11367142 80.19076172 273.11381744 78.97436523 273.1139679 C75.73702558 273.11339024 72.49972905 273.10837183 69.262398 273.10139394 C65.87913211 273.09514648 62.49586538 273.0945555 59.1125946 273.09336853 C52.70593784 273.09025933 46.29929813 273.08205147 39.89264888 273.07201904 C32.59888731 273.06084516 25.30512494 273.05534423 18.01135695 273.05032361 C3.0075618 273.03986853 -11.9962174 273.02227702 -27 273 C-27.27338416 272.31079405 -27.54676832 271.6215881 -27.82843685 270.91149712 C-28.18773564 270.00878138 -28.54703444 269.10606564 -28.91722107 268.17599487 C-29.27310523 267.28053892 -29.62898939 266.38508297 -29.99565792 265.46249199 C-31.03844794 262.90573158 -32.18422803 260.44988121 -33.47265625 258.0078125 C-34.10977539 256.79738281 -34.10977539 256.79738281 -34.75976562 255.5625 C-35.18966797 254.758125 -35.61957031 253.95375 -36.0625 253.125 C-36.49626953 252.29742188 -36.93003906 251.46984375 -37.37695312 250.6171875 C-39.72055316 246.15506644 -39.72055316 246.15506644 -42.52685547 241.98022461 C-43.94844501 240.06930105 -44.92619449 238.28314668 -45.91015625 236.12109375 C-46.2544165 235.37569336 -46.59867676 234.63029297 -46.95336914 233.86230469 C-47.31938232 233.06211914 -47.68539551 232.26193359 -48.0625 231.4375 C-51.44665053 224.1736207 -55.00884567 217.04433311 -58.77563477 209.97241211 C-62.55995803 202.86114833 -66.25976826 195.70836714 -69.94662476 188.54626465 C-75.06235751 178.60854953 -80.19240331 168.6794783 -85.4140625 158.796875 C-88.63071728 152.70897804 -91.81821918 146.60618959 -95 140.5 C-104.73790618 121.80760712 -104.73790618 121.80760712 -114.6640625 103.21484375 C-114.98100067 102.62859726 -115.29793884 102.04235077 -115.6244812 101.43833923 C-117.19753107 98.52931234 -118.77375601 95.62212916 -120.35498047 92.7175293 C-121.21567139 91.12871948 -121.21567139 91.12871948 -122.09375 89.5078125 C-122.60615234 88.56566895 -123.11855469 87.62352539 -123.64648438 86.65283203 C-124.09314453 85.77739746 -124.53980469 84.90196289 -125 84 C-125.4530249 83.17628906 -125.9060498 82.35257813 -126.37280273 81.50390625 C-127 79 -127 79 -125.86938477 76.31201172 C-125.23315186 75.36084473 -124.59691895 74.40967773 -123.94140625 73.4296875 C-123.24466797 72.3675 -122.54792969 71.3053125 -121.83007812 70.2109375 C-121.07475912 69.09859122 -120.31889731 67.98661332 -119.5625 66.875 C-118.12627718 64.70574566 -116.69007908 62.53647494 -115.25390625 60.3671875 C-114.54637207 59.30983398 -113.83883789 58.25248047 -113.10986328 57.16308594 C-111.04104842 54.06153939 -108.99039207 50.95028759 -106.96484375 47.8203125 C-106.10620728 46.49797607 -106.10620728 46.49797607 -105.23022461 45.14892578 C-103.83439035 43.12340937 -103.83439035 43.12340937 -104 41 C-103.26394531 40.27425781 -102.52789063 39.54851562 -101.76953125 38.80078125 C-98.79962081 35.79735983 -96.81049527 32.80102325 -94.6875 29.1875 C-94.32849609 28.59001953 -93.96949219 27.99253906 -93.59960938 27.37695312 C-92.72655376 25.92186044 -91.86233309 24.46147271 -91 23 C-89.10399631 23.31146472 -87.20820413 23.62421717 -85.3125 23.9375 C-83.72888672 24.19853516 -83.72888672 24.19853516 -82.11328125 24.46484375 C-80.28232986 24.77957442 -78.45488612 25.11979533 -76.64038086 25.51855469 C-55.89705486 29.30087913 -33.72376789 25.33180186 -16 14 C-6.8423839 8.04193272 -6.8423839 8.04193272 0 0 Z M-20 68 C-21.258125 69.093125 -22.51625 70.18625 -23.8125 71.3125 C-35.76823996 80.27205265 -35.76823996 80.27205265 -43.22705078 91.43017578 C-43.21657715 92.4251709 -43.20610352 93.42016602 -43.1953125 94.4453125 C-43.18886719 95.52167969 -43.18242188 96.59804688 -43.17578125 97.70703125 C-43.15902344 98.83496094 -43.14226562 99.96289062 -43.125 101.125 C-43.11597656 102.26066406 -43.10695313 103.39632812 -43.09765625 104.56640625 C-43.07403098 107.37781299 -43.04109013 110.18880298 -43 113 C-40.93575365 111.83634689 -38.87366802 110.66908578 -36.8125 109.5 C-35.08966797 108.52546875 -35.08966797 108.52546875 -33.33203125 107.53125 C-27.49516932 104.1207121 -21.75740713 100.54301977 -16 97 C-15.505 151.945 -15.505 151.945 -15 208 C2.08091699 209.96080384 2.08091699 209.96080384 18 207 C18 158.16 18 109.32 18 59 C-8.77356466 55.87816459 -8.77356466 55.87816459 -20 68 Z " fill="#56D8D7" transform="translate(672,431)"/>
<path d="M0 0 C5.72077676 4.43456725 9.94878348 10.6498384 14.1875 16.4375 C15.49471125 18.2018825 16.80200416 19.9662045 18.109375 21.73046875 C18.75712891 22.60880371 19.40488281 23.48713867 20.07226562 24.39208984 C23.00591672 28.36084124 25.97178885 32.30518494 28.9375 36.25 C29.92595479 37.56757816 30.91425447 38.88527271 31.90234375 40.203125 C32.59457031 41.12609375 33.28679687 42.0490625 34 43 C34.81082031 42.67386719 35.62164062 42.34773438 36.45703125 42.01171875 C43.55538873 39.21038792 50.59278003 36.83016453 58 35 C58.61069336 34.82581543 59.22138672 34.65163086 59.85058594 34.47216797 C62.20385193 33.95521926 64.32213532 33.87053872 66.73046875 33.8671875 C67.61541016 33.86589844 68.50035156 33.86460937 69.41210938 33.86328125 C70.78592773 33.86908203 70.78592773 33.86908203 72.1875 33.875 C73.11498047 33.87113281 74.04246094 33.86726563 74.99804688 33.86328125 C75.87912109 33.86457031 76.76019531 33.86585938 77.66796875 33.8671875 C78.47516357 33.86831543 79.2823584 33.86944336 80.11401367 33.87060547 C82 34 82 34 83 35 C85.16311876 35.39495146 87.33079315 35.76498458 89.5 36.125 C112.65520378 40.48952215 130.95767785 53.63259818 144.78515625 72.5390625 C150.11746485 80.51980616 154.49242243 89.51965645 156 99 C156.66 99.33 157.32 99.66 158 100 C161.42741759 115.9558641 160.20361102 134.64037576 155 150 C154.68804687 150.9384375 154.37609375 151.876875 154.0546875 152.84375 C150.07210755 163.68707691 143.32052474 173.98112571 135 182 C136.45408485 186.5035085 138.97962529 189.6343293 142.0625 193.125 C143.06713461 194.28713116 144.07103129 195.44990063 145.07421875 196.61328125 C145.57228027 197.18771973 146.0703418 197.7621582 146.58349609 198.35400391 C150.14595583 202.49362878 153.55635211 206.76166414 157 211 C158.02064434 212.25015432 159.04149067 213.50014375 160.0625 214.75 C165.77264789 221.74893201 171.42077223 228.78697208 176.96948242 235.91455078 C180.11073327 239.92687593 183.36805701 243.82188485 186.6875 247.6875 C190.73413321 252.40361297 194.44626905 257.2652423 198.05078125 262.33203125 C200.75275193 266.03031978 203.66842622 269.53341419 206.5859375 273.0625 C210.69568608 278.06335911 214.71002778 283.13353776 218.65771484 288.26318359 C219.89064833 289.85850714 221.1417433 291.43975134 222.39453125 293.01953125 C235.86830106 310.78345663 245.15282539 332.12878781 255.015625 352.0234375 C258.78464694 359.60721025 262.74074974 367.08699545 266.71240234 374.56591797 C269.11980321 379.11688244 271.49566821 383.6843173 273.875 388.25 C274.37563965 389.20938477 274.8762793 390.16876953 275.39208984 391.15722656 C277.97329509 396.10488078 280.5479855 401.05579595 283.11328125 406.01171875 C289.15466532 417.70885598 289.15466532 417.70885598 295.50024414 429.2421875 C295.91266357 429.96664063 296.32508301 430.69109375 296.75 431.4375 C297.06639435 431.99022079 297.3827887 432.54294159 297.70877075 433.1124115 C300.17314359 437.44947491 302.46919158 441.84160481 304.671875 446.31640625 C309.19131537 455.42417926 313.84099468 464.46303868 318.5 473.5 C319.33081536 475.11323686 320.16154492 476.72651792 320.9921875 478.33984375 C322.99380823 482.22706991 324.99657045 486.1137058 327 490 C327.66 490 328.32 490 329 490 C329.06960938 490.64324219 329.13921875 491.28648437 329.2109375 491.94921875 C330.33270482 496.28634882 332.47490367 499.90273404 334.625 503.8125 C343.22944629 519.83531601 352.09534745 537.00297592 352.1875 555.5625 C352.20167969 556.86316406 352.21585938 558.16382813 352.23046875 559.50390625 C352.01977971 562.6999519 351.78811515 564.40025811 350 567 C348.1875 568.0625 348.1875 568.0625 346 568 C341.72695891 564.23095863 338.59816859 559.85864297 335.375 555.1875 C334.859375 554.44846436 334.34375 553.70942871 333.8125 552.94799805 C332.20233875 550.63609121 330.60021574 548.3187995 329 546 C328.48469727 545.25524414 327.96939453 544.51048828 327.43847656 543.74316406 C324.67043735 539.74094464 321.90443881 535.73727399 319.16796875 531.71337891 C318.38539958 530.56537087 317.59624713 529.42182458 316.80078125 528.28271484 C314 524.22035362 314 524.22035362 314 522 C313.01 521.67 312.02 521.34 311 521 C309.89453125 519.3203125 309.89453125 519.3203125 308.8125 517.125 C306.37758628 512.52811274 303.51167022 508.48715522 300.4140625 504.31640625 C297.46177065 500.30473326 294.67567544 496.18072221 291.875 492.0625 C287.34069373 485.40220171 282.75932567 478.77858448 278.125 472.1875 C273.19023569 465.16484503 268.32309603 458.09978671 263.5 451 C257.02915361 441.47743346 250.44917875 432.03618207 243.83300781 422.61425781 C233.9920157 408.57891638 224.2426621 394.48164314 214.58544922 380.31933594 C212.95957116 377.94085711 211.32643019 375.56751209 209.69140625 373.1953125 C201.44356291 361.21739837 193.45636095 349.09889517 185.71875 336.78515625 C185.17162354 335.91503906 184.62449707 335.04492188 184.06079102 334.1484375 C182.99852193 332.45622001 181.93900179 330.76227301 180.88256836 329.06640625 C180.40440674 328.30328125 179.92624512 327.54015625 179.43359375 326.75390625 C178.80022095 325.73792358 178.80022095 325.73792358 178.15405273 324.70141602 C176.9776691 322.85216121 176.9776691 322.85216121 175 321 C174.0909899 319.41677279 173.22030404 317.81140336 172.37109375 316.1953125 C169.1572561 310.21494894 165.68515521 304.41960465 162.13864136 298.63165283 C160.26646866 295.57558827 158.40361076 292.51384493 156.5390625 289.453125 C156.16009323 288.83156525 155.78112396 288.21000549 155.39067078 287.5696106 C151.55004818 281.26848266 147.73741317 274.95077479 143.9375 268.625 C143.31786377 267.59479736 142.69822754 266.56459473 142.05981445 265.50317383 C138.08008352 258.86488538 134.21834262 252.17556135 130.515625 245.37890625 C129.06826865 242.75396719 129.06826865 242.75396719 126 241 C126 240.34 126 239.68 126 239 C125.18075853 237.37408382 124.30440154 235.77678388 123.40234375 234.1953125 C122.57512817 232.73847046 122.57512817 232.73847046 121.73120117 231.25219727 C121.13927979 230.22022217 120.5473584 229.18824707 119.9375 228.125 C119.04865112 226.56446899 119.04865112 226.56446899 118.1418457 224.97241211 C114.13926234 217.95569324 110.112117 210.95321601 106 204 C104.91460937 204.27714844 103.82921875 204.55429687 102.7109375 204.83984375 C101.26565719 205.2058563 99.82034288 205.5717346 98.375 205.9375 C97.66214844 206.11990234 96.94929688 206.30230469 96.21484375 206.49023438 C72.77131656 212.40488573 49.25646219 209.42571092 28 198 C24.09316644 195.58594143 20.5300216 192.93347531 17 190 C16.13761719 189.2884375 15.27523437 188.576875 14.38671875 187.84375 C-5.26049974 170.90957686 -14.24426561 149.20328719 -16.25390625 123.7890625 C-16.76428908 100.58365643 -8.04624376 80.13914233 7 63 C8.3412145 61.33966894 9.67686723 59.67477617 11 58 C9.6586265 54.1723433 7.95037939 51.43369025 5.375 48.3125 C2 44.21428571 2 44.21428571 2 42 C0.515 41.505 0.515 41.505 -1 41 C-2.21875 39.4609375 -2.21875 39.4609375 -3.5 37.375 C-5.4783602 34.25758392 -7.53408192 31.25175242 -9.765625 28.3125 C-10.25611328 27.66361816 -10.74660156 27.01473633 -11.25195312 26.34619141 C-12.23242836 25.05604195 -13.22045271 23.77158646 -14.21679688 22.49365234 C-17.29793638 18.41103446 -19.00752214 15.04154399 -20 10 C-19.09145711 4.95253951 -16.90523447 2.25436206 -13 -1 C-8.4042898 -2.62034318 -4.45668241 -1.6834754 0 0 Z M30 81 C29.278125 81.69996094 28.55625 82.39992188 27.8125 83.12109375 C17.94103296 93.31039212 13.02747418 107.54606919 12.6875 121.625 C13.17793195 136.33795865 17.71213215 149.48063143 27 161 C27.66 161 28.32 161 29 161 C29.20882812 161.56847656 29.41765625 162.13695312 29.6328125 162.72265625 C34.40263829 170.66782321 47.4552762 176.49941171 56 179 C58.72972385 179.16300648 58.72972385 179.16300648 61 179 C61 179.33 61 179.66 61 180 C76.72670005 181.58985766 92.33463068 180.74068361 105.5625 170.875 C106.71528662 169.92504221 107.86138482 168.96689827 109 168 C110.09634766 167.23042969 110.09634766 167.23042969 111.21484375 166.4453125 C111.80394531 165.96835937 112.39304687 165.49140625 113 165 C113 164.34 113 163.68 113 163 C113.59941406 162.7525 114.19882812 162.505 114.81640625 162.25 C118.81234056 159.96252419 120.68917481 155.87122777 123 152 C123.45890625 151.24460937 123.9178125 150.48921875 124.390625 149.7109375 C132.21194678 135.62313502 132.59180741 119.28540842 128.25 104.0625 C124.72044257 93.86320949 119.54790462 86.68839016 112 79 C111.05833984 78.02160156 111.05833984 78.02160156 110.09765625 77.0234375 C99.22053189 66.58323779 83.57616556 62.56286556 68.828125 62.7890625 C53.09049371 63.96286373 41.00061438 69.86931079 30 81 Z M192 299 C189.90709784 302.57818757 188.97945099 304.97254952 189.0625 309.125 C190.20928281 312.64180061 191.26877241 314.47886684 194 317 C197.68120421 318.62496671 200.7930768 319.24687065 204.75 318.4375 C207.68919962 316.55967802 209.22322566 315.02709703 211 312 C211.72079909 308.04361387 211.36484657 304.91211643 209.875 301.1875 C207.51719869 298.43673181 205.36463149 297.30465303 202 296 C197.52080453 296 195.70928562 296.55344991 192 299 Z " fill="#57BCFE" transform="translate(294,214)"/>
<path d="M0 0 C4.34161825 -0.04952706 8.68308575 -0.08577954 13.02490234 -0.10986328 C14.50116847 -0.11990591 15.97741479 -0.13354265 17.45361328 -0.15087891 C19.57850034 -0.17520421 21.70312385 -0.1865004 23.828125 -0.1953125 C25.1059082 -0.20578613 26.38369141 -0.21625977 27.70019531 -0.22705078 C30.85116235 -0.01024112 32.35679521 0.40713575 35 2 C36.79111873 2.63983081 38.58278902 3.2782718 40.37988281 3.90112305 C60.88812866 11.11599596 78.28598212 24.86639232 87.84765625 44.6640625 C96.28940894 63.60799568 97.7972489 85.74780896 90.48828125 105.328125 C81.85338557 126.52332151 67.63422128 142.65440564 46.74609375 152.4921875 C25.7421093 161.31552575 4.0811354 159.20382614 -17 152 C-17.4964502 152.72981079 -17.4964502 152.72981079 -18.00292969 153.47436523 C-28.51243873 168.91133679 -39.2043249 184.19904354 -50.19067383 199.30053711 C-52.91611709 203.06075008 -55.59331484 206.84452185 -58.1953125 210.69140625 C-58.9521936 211.80986938 -58.9521936 211.80986938 -59.72436523 212.95092773 C-60.68072501 214.37198293 -61.63103474 215.79713353 -62.57446289 217.22680664 C-63.66687729 218.85220767 -64.82701716 220.43174972 -66 222 C-66.66 222 -67.32 222 -68 222 C-69.37491299 220.49212839 -70.67364462 218.91460239 -71.9375 217.3125 C-72.73671875 216.31347656 -73.5359375 215.31445312 -74.359375 214.28515625 C-74.78669922 213.75035645 -75.21402344 213.21555664 -75.65429688 212.66455078 C-77.95302752 209.82116444 -80.3201114 207.0362592 -82.6875 204.25 C-83.15317383 203.70102051 -83.61884766 203.15204102 -84.09863281 202.58642578 C-87.38671039 198.71361879 -90.68637962 194.85096422 -94 191 C-92.70904461 187.42263486 -91.19378964 184.65805721 -88.8671875 181.65625 C-88.23393555 180.83278076 -87.60068359 180.00931152 -86.94824219 179.16088867 C-86.26407227 178.28279541 -85.57990234 177.40470215 -84.875 176.5 C-83.41913638 174.61078069 -81.96341114 172.72145473 -80.5078125 170.83203125 C-79.76047852 169.86604004 -79.01314453 168.90004883 -78.24316406 167.90478516 C-74.05337753 162.47922137 -69.90139088 157.02470775 -65.75952148 151.5625 C-62.63772512 147.44731635 -59.49828563 143.35136222 -56.29296875 139.30078125 C-55.72416992 138.57157471 -55.15537109 137.84236816 -54.56933594 137.09106445 C-53.51310885 135.73759572 -52.4454036 134.39297419 -51.36425781 133.05932617 C-48.6858789 129.61342171 -48.6858789 129.61342171 -47.984375 125.41796875 C-49.19750254 122.52979203 -50.65439498 119.97185902 -52.3125 117.3125 C-63.05273894 99.12657395 -65.61993306 77.52150948 -60.4375 57 C-56.04747112 43.26748974 -49.77338188 32.38423847 -39.40478516 22.36181641 C-38.17367118 21.16835902 -36.97992875 19.93659829 -35.79296875 18.69921875 C-27.30595231 10.34202283 -12.06341877 2 0 2 C0 1.34 0 0.68 0 0 Z M-23 46 C-33.32075275 58.67851092 -34.93349974 72.24114136 -34 88 C-32.21983127 99.91807879 -24.89164354 111.32863061 -15.68359375 118.90625 C-7.02426211 125.30250122 2.14215602 129.40214237 13 129 C13.66 128.67 14.32 128.34 15 128 C15 128.66 15 129.32 15 130 C27.1180436 129.52291167 37.36570071 126.46928822 47 119 C47.68835938 118.48695313 48.37671875 117.97390625 49.0859375 117.4453125 C58.53535733 109.8785357 64.5349312 98.71500486 66.53125 86.83984375 C68.11405405 71.74924609 64.45649094 58.62536086 55.2578125 46.609375 C46.38487607 36.35483947 34.44915674 30.49669299 21 29 C3.54239076 27.80392473 -10.97312094 33.07110501 -23 46 Z " fill="#58BCFE" transform="translate(592,272)"/>
<path d="M0 0 C0.66 0 1.32 0 2 0 C2.51046875 0.93457031 3.0209375 1.86914062 3.546875 2.83203125 C7.8153188 10.57158315 12.26711208 18.1595362 17 25.625 C17.75591431 26.81984009 17.75591431 26.81984009 18.52709961 28.03881836 C20.90308543 31.77404104 23.31070872 35.48036897 25.80078125 39.140625 C26.22681641 39.77532715 26.65285156 40.4100293 27.09179688 41.06396484 C28.2326894 42.75659299 29.39110302 44.43737436 30.55078125 46.1171875 C32.26300725 49.52317883 32.04712978 50.43293991 31 54 C29.82348633 56.08618164 29.82348633 56.08618164 28.33203125 58.16015625 C27.77580078 58.94326172 27.21957031 59.72636719 26.64648438 60.53320312 C26.04126953 61.36787109 25.43605469 62.20253906 24.8125 63.0625 C23.52712236 64.86572763 22.24197236 66.66911753 20.95703125 68.47265625 C20.29783691 69.39191895 19.63864258 70.31118164 18.95947266 71.25830078 C15.94029278 75.48274509 12.97137666 79.74186973 10 84 C8.83486458 85.66422296 7.66949917 87.32828493 6.50390625 88.9921875 C4.15387022 92.34900704 1.80792766 95.70863705 -0.53515625 99.0703125 C-6.14715837 107.11550122 -11.79372365 115.12880033 -17.5625 123.0625 C-23.16836393 130.77473203 -28.5758858 138.61123788 -33.9296875 146.5 C-37.23801086 151.36747979 -40.61705722 156.18421482 -44 161 C-45.08493879 162.54926676 -46.16957922 164.09874251 -47.25390625 165.6484375 C-48.96135944 168.08769294 -50.66885564 170.52691823 -52.37646484 172.96606445 C-55.45122032 177.35817077 -58.52528996 181.75075325 -61.59765625 186.14453125 C-68.55178656 196.08791111 -75.52766826 206.01542254 -82.53222656 215.92333984 C-84.52193227 218.73844908 -86.50984619 221.55482098 -88.49755859 224.37133789 C-89.49242062 225.78086047 -90.48753434 227.19020543 -91.48291016 228.59936523 C-94.08725355 232.28678341 -96.68727836 235.97715179 -99.28125 239.671875 C-99.82007813 240.43822266 -100.35890625 241.20457031 -100.9140625 241.99414062 C-101.94141431 243.45546001 -102.96753553 244.91764564 -103.9921875 246.38085938 C-105.31625846 248.26272266 -106.65642045 250.13204536 -108 252 C-108.6909375 252.98484375 -109.381875 253.9696875 -110.09375 254.984375 C-111.03734375 255.98210937 -111.03734375 255.98210937 -112 257 C-113.32 257 -114.64 257 -116 257 C-121.11655388 246.76689225 -119.21685269 237.64803764 -115.7421875 226.8125 C-113.40401266 220.21913104 -110.54790019 213.91464252 -107.37890625 207.68359375 C-106.66898102 206.27582124 -105.95927325 204.86793905 -105.24975586 203.45996094 C-104.88139618 202.73071411 -104.5130365 202.00146729 -104.1335144 201.25012207 C-102.21313024 197.4379969 -100.31499433 193.61481969 -98.4140625 189.79296875 C-83.47646434 159.80702875 -83.47646434 159.80702875 -77.78125 149.13867188 C-75.15763873 144.21940074 -72.59010089 139.27366576 -70.046875 134.3125 C-69.69022766 133.61689972 -69.33358032 132.92129944 -68.96612549 132.20462036 C-68.22702958 130.76290963 -67.4879552 129.32118786 -66.74890137 127.87945557 C-61.03495769 116.73549667 -55.23926612 105.65711798 -49.1784668 94.6965332 C-45.27537066 87.60127882 -41.65941016 80.3823263 -38.0793457 73.11987305 C-34.97844269 66.86378304 -31.70956152 60.72492305 -28.3125 54.625 C-24.84489711 48.39654762 -21.50050603 42.14223979 -18.35668945 35.74462891 C-14.67482759 28.27669276 -10.83087729 20.89218341 -7 13.5 C-6.6544104 12.83292023 -6.3088208 12.16584045 -5.95275879 11.47854614 C-3.96996245 7.65160766 -1.98564182 3.82546306 0 0 Z " fill="#57BCFE" transform="translate(448,525)"/>
<path d="M0 0 C2.41430664 -0.35644531 2.41430664 -0.35644531 5.41015625 -0.328125 C7.01793945 -0.32039062 7.01793945 -0.32039062 8.65820312 -0.3125 C10.34333008 -0.2815625 10.34333008 -0.2815625 12.0625 -0.25 C13.75342773 -0.24226562 13.75342773 -0.24226562 15.47851562 -0.234375 C23.8462291 -0.1537709 23.8462291 -0.1537709 25 1 C26.84599688 1.39454223 28.70225822 1.74176866 30.5625 2.0625 C31.57441406 2.23910156 32.58632813 2.41570312 33.62890625 2.59765625 C34.80259766 2.79681641 34.80259766 2.79681641 36 3 C36 3.33 36 3.66 36 4 C35.35160156 3.9278125 34.70320313 3.855625 34.03515625 3.78125 C22.04685472 2.64700859 10.0290918 2.90860421 -2 3 C-1.34 2.01 -0.68 1.02 0 0 Z " fill="#58B2F3" transform="translate(352,248)"/>
<path d="M0 0 C0 0.33 0 0.66 0 1 C-3.3 1 -6.6 1 -10 1 C-10.66 2.32 -11.32 3.64 -12 5 C-14.0625 6.125 -14.0625 6.125 -16 7 C-16.33 7.66 -16.66 8.32 -17 9 C-16.52643877 4.73794894 -14.15301808 2.71306207 -11 0 C-7.3756253 -1.69137486 -3.83503097 -0.66375536 0 0 Z " fill="#5DB3F2" transform="translate(292,213)"/>
<path d="M0 0 C0.66 0 1.32 0 2 0 C2 0.66 2 1.32 2 2 C6.62 2.66 11.24 3.32 16 4 C16 4.33 16 4.66 16 5 C9.58518742 5.42765417 4.11404596 3.85743168 -2 2 C-1.34 1.34 -0.68 0.68 0 0 Z " fill="#5DE1E2" transform="translate(586,455)"/>
<path d="M0 0 C1.98 0.99 3.96 1.98 6 3 C6.33 2.34 6.66 1.68 7 1 C7 2.32 7 3.64 7 5 C5.1875 5.625 5.1875 5.625 3 6 C2.01 5.34 1.02 4.68 0 4 C0 2.68 0 1.36 0 0 Z " fill="#5CBBF0" transform="translate(637,776)"/>
<path d="M0 0 C0.99 0.33 1.98 0.66 3 1 C3.73046875 2.84765625 3.73046875 2.84765625 4.1875 5.0625 C4.34605469 5.79597656 4.50460937 6.52945313 4.66796875 7.28515625 C4.83232422 8.13400391 4.83232422 8.13400391 5 9 C1.9083091 6.47043472 1.09068668 3.77545388 0 0 Z " fill="#5DC5FC" transform="translate(530,534)"/>
<path d="M0 0 C1.98 0 3.96 0 6 0 C6 0.33 6 0.66 6 1 C4.02 1 2.04 1 0 1 C0 0.67 0 0.34 0 0 Z " fill="#61C2F4" transform="translate(600,431)"/>
<path d="M0 0 C4 1 4 1 4 1 Z " fill="#61C5F5" transform="translate(611,431)"/>
<path d="M0 0 C4 1 4 1 4 1 Z " fill="#60BDF7" transform="translate(379,423)"/>
<path d="M0 0 C4 1 4 1 4 1 Z " fill="#62BFFA" transform="translate(596,303)"/>
<path d="M0 0 C4 1 4 1 4 1 Z " fill="#61C0FD" transform="translate(355,279)"/>
<path d="M0 0 C0.99 0.495 0.99 0.495 2 1 C1.01 1.495 1.01 1.495 0 2 C0 1.34 0 0.68 0 0 Z " fill="#5EB0E2" transform="translate(632,776)"/>
<path d="" fill="#60AEE6" transform="translate(0,0)"/>
<path d="M0 0 C0.66 0 1.32 0 2 0 C1.67 0.66 1.34 1.32 1 2 C0.67 1.34 0.34 0.68 0 0 Z " fill="#62D5DF" transform="translate(641,699)"/>
<path d="M0 0 C0.99 0.495 0.99 0.495 2 1 C1.01 1.495 1.01 1.495 0 2 C0 1.34 0 0.68 0 0 Z " fill="#60BBF4" transform="translate(561,675)"/>
<path d="M0 0 C3 1 3 1 3 1 Z " fill="#5FD8D9" transform="translate(617,456)"/>
<path d="M0 0 C3 1 3 1 3 1 Z " fill="#5FD7DB" transform="translate(602,456)"/>
<path d="M0 0 C0.66 0.66 1.32 1.32 2 2 C1.34 2 0.68 2 0 2 C0 1.34 0 0.68 0 0 Z " fill="#61BFFC" transform="translate(419,317)"/>
<path d="M0 0 C3 1 3 1 3 1 Z " fill="#61BEFA" transform="translate(603,302)"/>
<path d="M0 0 C3 1 3 1 3 1 Z " fill="#60B8EF" transform="translate(380,248)"/>
<path d="" fill="#5CB6E6" transform="translate(0,0)"/>
<path d="" fill="#60BBF0" transform="translate(0,0)"/>
<path d="M0 0 C2 1 2 1 2 1 Z " fill="#60B8F1" transform="translate(600,730)"/>
<path d="" fill="#61D4DF" transform="translate(0,0)"/>
<path d="" fill="#60D5E0" transform="translate(0,0)"/>
<path d="" fill="#61D6E0" transform="translate(0,0)"/>
<path d="" fill="#5EBBF6" transform="translate(0,0)"/>
<path d="" fill="#64B9F3" transform="translate(0,0)"/>
<path d="M0 0 C2 1 2 1 2 1 Z " fill="#60D8DF" transform="translate(584,590)"/>
<path d="" fill="#5FC2F3" transform="translate(0,0)"/>
<path d="M0 0 C2 1 2 1 2 1 Z " fill="#5EBFFB" transform="translate(493,511)"/>
<path d="" fill="#60BEF9" transform="translate(0,0)"/>
<path d="" fill="#61BEF9" transform="translate(0,0)"/>
<path d="" fill="#60BDF8" transform="translate(0,0)"/>
<path d="M0 0 C2 1 2 1 2 1 Z " fill="#62C6F5" transform="translate(608,431)"/>
<path d="M0 0 C2 1 2 1 2 1 Z " fill="#61C4F5" transform="translate(620,430)"/>
<path d="M0 0 C2 1 2 1 2 1 Z " fill="#62C5F7" transform="translate(595,430)"/>
<path d="M0 0 C2 1 2 1 2 1 Z " fill="#61C0FB" transform="translate(376,392)"/>
<path d="M0 0 C2 1 2 1 2 1 Z " fill="#63C0FB" transform="translate(372,392)"/>
<path d="M0 0 C2 1 2 1 2 1 Z " fill="#64C0FC" transform="translate(361,392)"/>
<path d="" fill="#60BFFB" transform="translate(0,0)"/>
<path d="" fill="#61B6F2" transform="translate(0,0)"/>
<path d="" fill="#61C0FB" transform="translate(0,0)"/>
<path d="" fill="#62C1FC" transform="translate(0,0)"/>
<path d="" fill="#5DBDF9" transform="translate(0,0)"/>
<path d="M0 0 C2 1 2 1 2 1 Z " fill="#5FBEF9" transform="translate(616,303)"/>
<path d="M0 0 C2 1 2 1 2 1 Z " fill="#63BEFC" transform="translate(612,303)"/>
<path d="M0 0 C2 1 2 1 2 1 Z " fill="#60B6EF" transform="translate(628,273)"/>
<path d="" fill="#5EA1D4" transform="translate(0,0)"/>
<path d="" fill="#5CA4D2" transform="translate(0,0)"/>
<path d="" fill="#5DA4D1" transform="translate(0,0)"/>
<path d="" fill="#5EA9D5" transform="translate(0,0)"/>
<path d="" fill="#5DB3E6" transform="translate(0,0)"/>
<path d="" fill="#5DB3ED" transform="translate(0,0)"/>
<path d="" fill="#62B7EE" transform="translate(0,0)"/>
<path d="" fill="#5EB6EF" transform="translate(0,0)"/>
<path d="" fill="#60B8EE" transform="translate(0,0)"/>
<path d="" fill="#5FB6EC" transform="translate(0,0)"/>
<path d="" fill="#62BAEA" transform="translate(0,0)"/>
<path d="" fill="#63B5EC" transform="translate(0,0)"/>
<path d="" fill="#5EB8EF" transform="translate(0,0)"/>
<path d="" fill="#5CBDF3" transform="translate(0,0)"/>
<path d="" fill="#5EBAF2" transform="translate(0,0)"/>
<path d="" fill="#61BAF0" transform="translate(0,0)"/>
<path d="" fill="#61C2F3" transform="translate(0,0)"/>
<path d="" fill="#61BBF2" transform="translate(0,0)"/>
<path d="" fill="#62BAF1" transform="translate(0,0)"/>
<path d="" fill="#5EC1F5" transform="translate(0,0)"/>
<path d="" fill="#5DB7F5" transform="translate(0,0)"/>
<path d="" fill="#5EB7F2" transform="translate(0,0)"/>
<path d="" fill="#5FB9F5" transform="translate(0,0)"/>
<path d="" fill="#5EC1F5" transform="translate(0,0)"/>
<path d="" fill="#61B8F3" transform="translate(0,0)"/>
<path d="" fill="#5EBAF2" transform="translate(0,0)"/>
<path d="" fill="#61B8F5" transform="translate(0,0)"/>
<path d="" fill="#5BC6C6" transform="translate(0,0)"/>
<path d="" fill="#5EBBF2" transform="translate(0,0)"/>
<path d="" fill="#63C6F4" transform="translate(0,0)"/>
<path d="" fill="#60BDF5" transform="translate(0,0)"/>
<path d="" fill="#64C7F5" transform="translate(0,0)"/>
<path d="" fill="#64B9F2" transform="translate(0,0)"/>
<path d="" fill="#5BBBF6" transform="translate(0,0)"/>
<path d="" fill="#60BAF5" transform="translate(0,0)"/>
<path d="" fill="#5EBDF4" transform="translate(0,0)"/>
<path d="" fill="#63D4E1" transform="translate(0,0)"/>
<path d="" fill="#60BDF5" transform="translate(0,0)"/>
<path d="" fill="#62BCF6" transform="translate(0,0)"/>
<path d="" fill="#60D5DE" transform="translate(0,0)"/>
<path d="" fill="#63B9F2" transform="translate(0,0)"/>
<path d="" fill="#62BDF4" transform="translate(0,0)"/>
<path d="" fill="#5FBAF4" transform="translate(0,0)"/>
<path d="" fill="#60BEF5" transform="translate(0,0)"/>
<path d="" fill="#5FB6F3" transform="translate(0,0)"/>
<path d="" fill="#65C7F2" transform="translate(0,0)"/>
<path d="" fill="#61BAF2" transform="translate(0,0)"/>
<path d="" fill="#60D3DC" transform="translate(0,0)"/>
<path d="" fill="#64B9F0" transform="translate(0,0)"/>
<path d="" fill="#63C8F3" transform="translate(0,0)"/>
<path d="" fill="#5EBFF6" transform="translate(0,0)"/>
<path d="" fill="#60BDF7" transform="translate(0,0)"/>
<path d="" fill="#60D4E0" transform="translate(0,0)"/>
<path d="" fill="#61D8DF" transform="translate(0,0)"/>
<path d="" fill="#64CAF1" transform="translate(0,0)"/>
<path d="" fill="#64BEF8" transform="translate(0,0)"/>
<path d="" fill="#63C7F4" transform="translate(0,0)"/>
<path d="" fill="#62D9E0" transform="translate(0,0)"/>
<path d="" fill="#64CCF2" transform="translate(0,0)"/>
<path d="" fill="#60BEF7" transform="translate(0,0)"/>
<path d="" fill="#60BFFA" transform="translate(0,0)"/>
<path d="" fill="#63D7E1" transform="translate(0,0)"/>
<path d="" fill="#61C8F4" transform="translate(0,0)"/>
<path d="" fill="#60D7DE" transform="translate(0,0)"/>
<path d="" fill="#62BEF8" transform="translate(0,0)"/>
<path d="" fill="#5FBEFA" transform="translate(0,0)"/>
<path d="" fill="#62D8E0" transform="translate(0,0)"/>
<path d="" fill="#5EBFF9" transform="translate(0,0)"/>
<path d="" fill="#62C1FB" transform="translate(0,0)"/>
<path d="" fill="#62D7DF" transform="translate(0,0)"/>
<path d="" fill="#5EBEFA" transform="translate(0,0)"/>
<path d="" fill="#60C7F3" transform="translate(0,0)"/>
<path d="" fill="#5ED5D5" transform="translate(0,0)"/>
<path d="" fill="#5EBFF7" transform="translate(0,0)"/>
<path d="" fill="#5FC1FB" transform="translate(0,0)"/>
<path d="" fill="#61B9F3" transform="translate(0,0)"/>
<path d="" fill="#60BAF7" transform="translate(0,0)"/>
<path d="" fill="#63BBF7" transform="translate(0,0)"/>
<path d="" fill="#61BEFB" transform="translate(0,0)"/>
<path d="" fill="#60BFFD" transform="translate(0,0)"/>
<path d="" fill="#62D6DE" transform="translate(0,0)"/>
<path d="" fill="#62C8F4" transform="translate(0,0)"/>
<path d="" fill="#5FD6DE" transform="translate(0,0)"/>
<path d="" fill="#63C9F3" transform="translate(0,0)"/>
<path d="" fill="#5FBFFC" transform="translate(0,0)"/>
<path d="" fill="#60BEFA" transform="translate(0,0)"/>
<path d="" fill="#62C1F4" transform="translate(0,0)"/>
<path d="" fill="#5DC1FC" transform="translate(0,0)"/>
<path d="" fill="#5FD3DB" transform="translate(0,0)"/>
<path d="" fill="#60D8DE" transform="translate(0,0)"/>
<path d="" fill="#62D7DF" transform="translate(0,0)"/>
<path d="" fill="#63BFFC" transform="translate(0,0)"/>
<path d="" fill="#63D6DF" transform="translate(0,0)"/>
<path d="" fill="#5FBFFB" transform="translate(0,0)"/>
<path d="" fill="#63D8D3" transform="translate(0,0)"/>
<path d="" fill="#5EDCDA" transform="translate(0,0)"/>
<path d="" fill="#5FC2F2" transform="translate(0,0)"/>
<path d="" fill="#5EBFF3" transform="translate(0,0)"/>
<path d="" fill="#61BEF9" transform="translate(0,0)"/>
<path d="" fill="#61D7E0" transform="translate(0,0)"/>
<path d="" fill="#5EBEFB" transform="translate(0,0)"/>
<path d="" fill="#61BDFB" transform="translate(0,0)"/>
<path d="" fill="#5ED5DD" transform="translate(0,0)"/>
<path d="" fill="#63D4DC" transform="translate(0,0)"/>
<path d="" fill="#62C2FA" transform="translate(0,0)"/>
<path d="" fill="#61C2FE" transform="translate(0,0)"/>
<path d="" fill="#63BFF8" transform="translate(0,0)"/>
<path d="" fill="#62C0FB" transform="translate(0,0)"/>
<path d="" fill="#5EC2F6" transform="translate(0,0)"/>
<path d="" fill="#61D6E0" transform="translate(0,0)"/>
<path d="" fill="#62C2FD" transform="translate(0,0)"/>
<path d="" fill="#60D6E0" transform="translate(0,0)"/>
<path d="" fill="#61D4E2" transform="translate(0,0)"/>
<path d="" fill="#61C2F7" transform="translate(0,0)"/>
<path d="" fill="#60BDF9" transform="translate(0,0)"/>
<path d="" fill="#60BEF9" transform="translate(0,0)"/>
<path d="" fill="#5FBBF6" transform="translate(0,0)"/>
<path d="" fill="#61D6E1" transform="translate(0,0)"/>
<path d="" fill="#62C1F5" transform="translate(0,0)"/>
<path d="" fill="#64C0F8" transform="translate(0,0)"/>
<path d="" fill="#5FBDF7" transform="translate(0,0)"/>
<path d="" fill="#63D8E3" transform="translate(0,0)"/>
<path d="" fill="#5DBEF8" transform="translate(0,0)"/>
<path d="" fill="#5EBEF6" transform="translate(0,0)"/>
<path d="" fill="#63D8DF" transform="translate(0,0)"/>
<path d="" fill="#5DC0F7" transform="translate(0,0)"/>
<path d="" fill="#60BFFA" transform="translate(0,0)"/>
<path d="" fill="#64C3F4" transform="translate(0,0)"/>
<path d="" fill="#61BDF8" transform="translate(0,0)"/>
<path d="" fill="#61BEF7" transform="translate(0,0)"/>
<path d="" fill="#5EBEFC" transform="translate(0,0)"/>
<path d="" fill="#60C2F6" transform="translate(0,0)"/>
<path d="" fill="#5CBDF8" transform="translate(0,0)"/>
<path d="" fill="#60D8D9" transform="translate(0,0)"/>
<path d="" fill="#63D7DC" transform="translate(0,0)"/>
<path d="" fill="#5FD7DC" transform="translate(0,0)"/>
<path d="" fill="#63C5F7" transform="translate(0,0)"/>
<path d="" fill="#63C6F3" transform="translate(0,0)"/>
<path d="" fill="#63C6F6" transform="translate(0,0)"/>
<path d="" fill="#64BEFA" transform="translate(0,0)"/>
<path d="" fill="#66C8F3" transform="translate(0,0)"/>
<path d="" fill="#64C1F9" transform="translate(0,0)"/>
<path d="" fill="#5EBCF5" transform="translate(0,0)"/>
<path d="" fill="#63BBF3" transform="translate(0,0)"/>
<path d="" fill="#60C4F3" transform="translate(0,0)"/>
<path d="" fill="#63BFF8" transform="translate(0,0)"/>
<path d="" fill="#60B7F3" transform="translate(0,0)"/>
<path d="" fill="#62C2FC" transform="translate(0,0)"/>
<path d="" fill="#64C0F9" transform="translate(0,0)"/>
<path d="" fill="#61BFFB" transform="translate(0,0)"/>
<path d="" fill="#64C1FA" transform="translate(0,0)"/>
<path d="" fill="#5CB7F4" transform="translate(0,0)"/>
<path d="" fill="#5FC0F6" transform="translate(0,0)"/>
<path d="" fill="#63C2F1" transform="translate(0,0)"/>
<path d="" fill="#64C1F9" transform="translate(0,0)"/>
<path d="" fill="#62C1FC" transform="translate(0,0)"/>
<path d="" fill="#61C1FA" transform="translate(0,0)"/>
<path d="" fill="#64C0FC" transform="translate(0,0)"/>
<path d="" fill="#63C0FA" transform="translate(0,0)"/>
<path d="" fill="#60C4FB" transform="translate(0,0)"/>
<path d="" fill="#60BFFA" transform="translate(0,0)"/>
<path d="" fill="#63BFF3" transform="translate(0,0)"/>
<path d="" fill="#62BEFA" transform="translate(0,0)"/>
<path d="" fill="#63BEFA" transform="translate(0,0)"/>
<path d="" fill="#63C0FD" transform="translate(0,0)"/>
<path d="" fill="#62BBF2" transform="translate(0,0)"/>
<path d="" fill="#62BDFA" transform="translate(0,0)"/>
<path d="" fill="#60BFFC" transform="translate(0,0)"/>
<path d="" fill="#63C0FB" transform="translate(0,0)"/>
<path d="" fill="#62C0FB" transform="translate(0,0)"/>
<path d="" fill="#62C3FE" transform="translate(0,0)"/>
<path d="" fill="#62BEFA" transform="translate(0,0)"/>
<path d="" fill="#61BEFB" transform="translate(0,0)"/>
<path d="" fill="#61BDFB" transform="translate(0,0)"/>
<path d="" fill="#64B8F1" transform="translate(0,0)"/>
<path d="" fill="#64C0F7" transform="translate(0,0)"/>
<path d="" fill="#63BFFC" transform="translate(0,0)"/>
<path d="" fill="#62BFFB" transform="translate(0,0)"/>
<path d="" fill="#63BDF8" transform="translate(0,0)"/>
<path d="" fill="#64BCF7" transform="translate(0,0)"/>
<path d="" fill="#5DB9F1" transform="translate(0,0)"/>
<path d="" fill="#64BDFA" transform="translate(0,0)"/>
<path d="" fill="#61BDF9" transform="translate(0,0)"/>
<path d="" fill="#62C2F9" transform="translate(0,0)"/>
<path d="" fill="#5FC1FC" transform="translate(0,0)"/>
<path d="" fill="#61C2FC" transform="translate(0,0)"/>
<path d="" fill="#63BDFB" transform="translate(0,0)"/>
<path d="" fill="#60B8F3" transform="translate(0,0)"/>
<path d="" fill="#62BCF4" transform="translate(0,0)"/>
<path d="" fill="#62BDF7" transform="translate(0,0)"/>
<path d="" fill="#62C0FC" transform="translate(0,0)"/>
<path d="" fill="#62BEFA" transform="translate(0,0)"/>
<path d="" fill="#63C0FA" transform="translate(0,0)"/>
<path d="" fill="#66B9F3" transform="translate(0,0)"/>
<path d="" fill="#65BCF4" transform="translate(0,0)"/>
<path d="" fill="#64BCF5" transform="translate(0,0)"/>
<path d="" fill="#62C0FC" transform="translate(0,0)"/>
<path d="" fill="#63BBF5" transform="translate(0,0)"/>
<path d="" fill="#62B9F0" transform="translate(0,0)"/>
<path d="" fill="#63B7F2" transform="translate(0,0)"/>
<path d="" fill="#60BBFB" transform="translate(0,0)"/>
<path d="" fill="#62B5ED" transform="translate(0,0)"/>
<path d="" fill="#66BEFD" transform="translate(0,0)"/>
<path d="" fill="#62B5EE" transform="translate(0,0)"/>
<path d="" fill="#61BAF0" transform="translate(0,0)"/>
<path d="" fill="#5FB7F2" transform="translate(0,0)"/>
<path d="" fill="#5CBBF7" transform="translate(0,0)"/>
<path d="" fill="#62BEFC" transform="translate(0,0)"/>
<path d="" fill="#5EBDF8" transform="translate(0,0)"/>
<path d="" fill="#64B8F1" transform="translate(0,0)"/>
<path d="" fill="#65BDF7" transform="translate(0,0)"/>
<path d="" fill="#60BAF4" transform="translate(0,0)"/>
<path d="" fill="#61B8F1" transform="translate(0,0)"/>
<path d="" fill="#61BDF7" transform="translate(0,0)"/>
<path d="" fill="#5EB8EF" transform="translate(0,0)"/>
<path d="" fill="#61BBF9" transform="translate(0,0)"/>
<path d="" fill="#65BBF7" transform="translate(0,0)"/>
<path d="" fill="#63BAF3" transform="translate(0,0)"/>
<path d="" fill="#60BAF0" transform="translate(0,0)"/>
<path d="" fill="#62B9F3" transform="translate(0,0)"/>
<path d="" fill="#62B7F2" transform="translate(0,0)"/>
<path d="" fill="#65BCF6" transform="translate(0,0)"/>
<path d="" fill="#5EB9F3" transform="translate(0,0)"/>
<path d="" fill="#65B0E5" transform="translate(0,0)"/>
<path d="" fill="#63AFE4" transform="translate(0,0)"/>
</svg>
